<svg width="140" height="40" viewBox="0 0 140 40" fill="none" xmlns="http://www.w3.org/2000/svg">
<rect width="140" height="40" rx="4" fill="black"/>
<mask id="mask0" mask-type="alpha" maskUnits="userSpaceOnUse" x="0" y="0" width="140" height="40">
<rect width="140" height="40" rx="4" fill="white"/>
</mask>
<g mask="url(#mask0)">
<rect width="140" height="40" fill="black"/>
</g>
<g clip-path="url(#clip0)">
<path fill-rule="evenodd" clip-rule="evenodd" d="M109.846 30.0831H111.738V17.4565H109.846V30.0831ZM126.894 22.0048L124.725 27.4792H124.659L122.408 22.0048H120.369L123.746 29.6558L121.821 33.9121H123.795L129 22.0048H126.894ZM116.158 28.6488C115.54 28.6488 114.675 28.3397 114.675 27.5761C114.675 26.6025 115.752 26.2277 116.682 26.2277C117.513 26.2277 117.905 26.4075 118.41 26.6499C118.264 27.8206 117.253 28.6488 116.158 28.6488ZM116.388 21.728C115.017 21.728 113.598 22.33 113.011 23.6612L114.691 24.3602C115.051 23.6612 115.719 23.434 116.42 23.434C117.399 23.434 118.395 24.0188 118.41 25.0581V25.1884C118.068 24.9935 117.334 24.7016 116.436 24.7016C114.626 24.7016 112.781 25.6924 112.781 27.5438C112.781 29.2336 114.266 30.3225 115.931 30.3225C117.203 30.3225 117.905 29.7538 118.345 29.0872H118.41V30.0619H120.238V25.2207C120.238 22.9794 118.557 21.728 116.388 21.728ZM104.69 23.542H101.997V19.214H104.69C106.104 19.214 106.908 20.3796 106.908 21.3775C106.908 22.3563 106.104 23.542 104.69 23.542ZM104.641 17.4555H100.105V30.0831H101.997V25.2995H104.641C106.738 25.2995 108.802 23.7875 108.802 21.3775C108.802 18.9686 106.738 17.4555 104.641 17.4555ZM79.9079 28.6508C78.6003 28.6508 77.5057 27.561 77.5057 26.0641C77.5057 24.5501 78.6003 23.4441 79.9079 23.4441C81.1992 23.4441 82.2126 24.5501 82.2126 26.0641C82.2126 27.561 81.1992 28.6508 79.9079 28.6508ZM82.0818 22.7118H82.0158C81.5908 22.2078 80.7742 21.7512 79.7445 21.7512C77.5869 21.7512 75.6097 23.64 75.6097 26.0641C75.6097 28.4721 77.5869 30.3437 79.7445 30.3437C80.7742 30.3437 81.5908 29.8881 82.0158 29.367H82.0818V29.9851C82.0818 31.6294 81.1992 32.5072 79.777 32.5072C78.6175 32.5072 77.8983 31.6779 77.6041 30.978L75.9536 31.6618C76.4264 32.8001 77.6853 34.2 79.777 34.2C82.0006 34.2 83.8793 32.8981 83.8793 29.7245V22.0118H82.0818V22.7118ZM85.1869 30.0831H87.0819V17.4565H85.1869V30.0831ZM89.8766 25.9177C89.8279 24.2571 91.169 23.4117 92.1327 23.4117C92.8844 23.4117 93.5215 23.7865 93.7345 24.3228L89.8766 25.9177ZM95.7603 24.4854C95.4012 23.5259 94.3056 21.7512 92.0668 21.7512C89.8442 21.7512 87.9979 23.4925 87.9979 26.048C87.9979 28.4559 89.8279 30.3437 92.2788 30.3437C94.2569 30.3437 95.4012 29.1397 95.8749 28.4397L94.404 27.463C93.914 28.1791 93.2445 28.6508 92.2788 28.6508C91.3151 28.6508 90.6283 28.2115 90.1881 27.3489L95.9561 24.9733L95.7603 24.4854ZM49.7987 23.0704V24.8925H54.179C54.0481 25.9177 53.7052 26.6661 53.1818 27.1863C52.5437 27.8216 51.5476 28.5215 49.7987 28.5215C47.1023 28.5215 44.9944 26.357 44.9944 23.6723C44.9944 20.9876 47.1023 18.8221 49.7987 18.8221C51.2534 18.8221 52.3155 19.3918 53.0996 20.1251L54.391 18.8393C53.2964 17.7979 51.8417 17 49.7987 17C46.1052 17 43 19.9948 43 23.6723C43 27.3489 46.1052 30.3437 49.7987 30.3437C51.792 30.3437 53.2964 29.6922 54.4721 28.4721C55.6824 27.2681 56.0577 25.5763 56.0577 24.2087C56.0577 23.7865 56.0252 23.3956 55.9603 23.0704H49.7987ZM61.0375 28.6508C59.7299 28.6508 58.6019 27.5772 58.6019 26.048C58.6019 24.5016 59.7299 23.4441 61.0375 23.4441C62.3451 23.4441 63.4721 24.5016 63.4721 26.048C63.4721 27.5772 62.3451 28.6508 61.0375 28.6508ZM61.0375 21.7512C58.6516 21.7512 56.7069 23.5582 56.7069 26.048C56.7069 28.5215 58.6516 30.3437 61.0375 30.3437C63.4234 30.3437 65.3681 28.5215 65.3681 26.048C65.3681 23.5582 63.4234 21.7512 61.0375 21.7512ZM70.4849 28.6508C69.1773 28.6508 68.0502 27.5772 68.0502 26.048C68.0502 24.5016 69.1773 23.4441 70.4849 23.4441C71.7925 23.4441 72.9195 24.5016 72.9195 26.048C72.9195 27.5772 71.7925 28.6508 70.4849 28.6508ZM70.4849 21.7512C68.0989 21.7512 66.1543 23.5582 66.1543 26.048C66.1543 28.5215 68.0989 30.3437 70.4849 30.3437C72.8718 30.3437 74.8165 28.5215 74.8165 26.048C74.8165 23.5582 72.8718 21.7512 70.4849 21.7512Z" fill="white"/>
<path fill-rule="evenodd" clip-rule="evenodd" d="M43.8705 11.9046H44.9345C45.6275 11.9046 46.1765 11.7066 46.5815 11.3096C46.9865 10.9126 47.1885 10.3566 47.1885 9.6416C47.1885 8.9326 46.9865 8.3786 46.5815 7.9786C46.1765 7.5796 45.6275 7.3796 44.9345 7.3796H43.8705V11.9046ZM43.0995 12.6416V6.6416H44.9345C45.8565 6.6416 46.5945 6.9196 47.1475 7.4756C47.7005 8.0316 47.9765 8.7536 47.9765 9.6416C47.9765 10.5296 47.7005 11.2526 47.1475 11.8076C46.5945 12.3636 45.8565 12.6416 44.9345 12.6416H43.0995Z" fill="white"/>
<path d="M43.8705 11.9046H43.7705V12.0046H43.8705V11.9046ZM46.5815 7.9786L46.6518 7.90745L46.6517 7.90737L46.5815 7.9786ZM43.8705 7.3796V7.2796H43.7705V7.3796H43.8705ZM43.0995 12.6416H42.9995V12.7416H43.0995V12.6416ZM43.0995 6.6416V6.5416H42.9995V6.6416H43.0995ZM47.1475 11.8076L47.0766 11.737L47.0766 11.7371L47.1475 11.8076ZM43.8705 12.0046H44.9345V11.8046H43.8705V12.0046ZM44.9345 12.0046C45.6474 12.0046 46.2238 11.8003 46.6515 11.381L46.5115 11.2382C46.1292 11.6129 45.6075 11.8046 44.9345 11.8046V12.0046ZM46.6515 11.381C47.0804 10.9606 47.2885 10.376 47.2885 9.6416H47.0885C47.0885 10.3372 46.8926 10.8646 46.5115 11.2382L46.6515 11.381ZM47.2885 9.6416C47.2885 8.91286 47.0802 8.33065 46.6518 7.90745L46.5112 8.04975C46.8927 8.42656 47.0885 8.95234 47.0885 9.6416H47.2885ZM46.6517 7.90737C46.2241 7.48609 45.6477 7.2796 44.9345 7.2796V7.4796C45.6073 7.4796 46.1289 7.67312 46.5113 8.04984L46.6517 7.90737ZM44.9345 7.2796H43.8705V7.4796H44.9345V7.2796ZM43.7705 7.3796V11.9046H43.9705V7.3796H43.7705ZM43.1995 12.6416V6.6416H42.9995V12.6416H43.1995ZM43.0995 6.7416H44.9345V6.5416H43.0995V6.7416ZM44.9345 6.7416C45.8349 6.7416 46.5456 7.0123 47.0766 7.54612L47.2184 7.40508C46.6433 6.8269 45.878 6.5416 44.9345 6.5416V6.7416ZM47.0766 7.54612C47.6084 8.08082 47.8765 8.77617 47.8765 9.6416H48.0765C48.0765 8.73103 47.7926 7.98239 47.2184 7.40508L47.0766 7.54612ZM47.8765 9.6416C47.8765 10.5071 47.6084 11.2034 47.0766 11.737L47.2183 11.8782C47.7926 11.3018 48.0765 10.5521 48.0765 9.6416H47.8765ZM47.0766 11.7371C46.5456 12.2709 45.8349 12.5416 44.9345 12.5416V12.7416C45.878 12.7416 46.6433 12.4563 47.2184 11.8781L47.0766 11.7371ZM44.9345 12.5416H43.0995V12.7416H44.9345V12.5416Z" fill="white"/>
<mask id="mask1" mask-type="alpha" maskUnits="userSpaceOnUse" x="43" y="4" width="62" height="9">
<path fill-rule="evenodd" clip-rule="evenodd" d="M43 12.8758H104.205V4.99976H43V12.8758Z" fill="white"/>
</mask>
<g mask="url(#mask1)">
<path fill-rule="evenodd" clip-rule="evenodd" d="M49.059 12.6418H49.83V6.64185H49.059V12.6418Z" fill="white"/>
<path fill-rule="evenodd" clip-rule="evenodd" d="M49.059 12.6418H49.83V6.64185H49.059V12.6418Z" stroke="white" stroke-width="0.2"/>
<path fill-rule="evenodd" clip-rule="evenodd" d="M52.8959 12.7758C52.4599 12.7758 52.0349 12.6338 51.6189 12.3488C51.2019 12.0638 50.9289 11.6648 50.8009 11.1508L51.5049 10.8658C51.5889 11.1948 51.7599 11.4728 52.0199 11.6988C52.2809 11.9248 52.5719 12.0388 52.8959 12.0388C53.2309 12.0388 53.5179 11.9508 53.7549 11.7748C53.9929 11.5988 54.1109 11.3598 54.1109 11.0578C54.1109 10.7228 53.9929 10.4648 53.7549 10.2828C53.5179 10.1018 53.1419 9.93281 52.6279 9.77581C52.0969 9.60881 51.6949 9.39181 51.4209 9.12681C51.1479 8.86081 51.0099 8.52181 51.0099 8.10881C51.0099 7.67781 51.1809 7.30381 51.5219 6.98581C51.8629 6.66781 52.3069 6.50781 52.8539 6.50781C53.3629 6.50781 53.7759 6.63481 54.0939 6.88881C54.4129 7.14381 54.6199 7.42181 54.7139 7.72281L54.0109 8.01581C53.9599 7.82681 53.8359 7.65081 53.6379 7.48781C53.4399 7.32681 53.1839 7.24581 52.8709 7.24581C52.5749 7.24581 52.3219 7.32781 52.1129 7.49281C51.9029 7.65781 51.7979 7.86281 51.7979 8.10881C51.7979 8.33181 51.8949 8.52081 52.0869 8.67381C52.2809 8.82781 52.5639 8.96581 52.9379 9.08881C53.2339 9.18381 53.4809 9.27581 53.6799 9.36581C53.8779 9.45481 54.0799 9.57381 54.2829 9.72181C54.4869 9.86981 54.6399 10.0538 54.7439 10.2748C54.8469 10.4958 54.8989 10.7508 54.8989 11.0418C54.8989 11.3318 54.8389 11.5918 54.7189 11.8208C54.5989 12.0498 54.4389 12.2318 54.2409 12.3658C54.0419 12.4998 53.8299 12.6018 53.5999 12.6718C53.3709 12.7408 53.1359 12.7758 52.8959 12.7758Z" fill="white"/>
<path fill-rule="evenodd" clip-rule="evenodd" d="M52.8959 12.7758C52.4599 12.7758 52.0349 12.6338 51.6189 12.3488C51.2019 12.0638 50.9289 11.6648 50.8009 11.1508L51.5049 10.8658C51.5889 11.1948 51.7599 11.4728 52.0199 11.6988C52.2809 11.9248 52.5719 12.0388 52.8959 12.0388C53.2309 12.0388 53.5179 11.9508 53.7549 11.7748C53.9929 11.5988 54.1109 11.3598 54.1109 11.0578C54.1109 10.7228 53.9929 10.4648 53.7549 10.2828C53.5179 10.1018 53.1419 9.93281 52.6279 9.77581C52.0969 9.60881 51.6949 9.39181 51.4209 9.12681C51.1479 8.86081 51.0099 8.52181 51.0099 8.10881C51.0099 7.67781 51.1809 7.30381 51.5219 6.98581C51.8629 6.66781 52.3069 6.50781 52.8539 6.50781C53.3629 6.50781 53.7759 6.63481 54.0939 6.88881C54.4129 7.14381 54.6199 7.42181 54.7139 7.72281L54.0109 8.01581C53.9599 7.82681 53.8359 7.65081 53.6379 7.48781C53.4399 7.32681 53.1839 7.24581 52.8709 7.24581C52.5749 7.24581 52.3219 7.32781 52.1129 7.49281C51.9029 7.65781 51.7979 7.86281 51.7979 8.10881C51.7979 8.33181 51.8949 8.52081 52.0869 8.67381C52.2809 8.82781 52.5639 8.96581 52.9379 9.08881C53.2339 9.18381 53.4809 9.27581 53.6799 9.36581C53.8779 9.45481 54.0799 9.57381 54.2829 9.72181C54.4869 9.86981 54.6399 10.0538 54.7439 10.2748C54.8469 10.4958 54.8989 10.7508 54.8989 11.0418C54.8989 11.3318 54.8389 11.5918 54.7189 11.8208C54.5989 12.0498 54.4389 12.2318 54.2409 12.3658C54.0419 12.4998 53.8299 12.6018 53.5999 12.6718C53.3709 12.7408 53.1359 12.7758 52.8959 12.7758Z" stroke="white" stroke-width="0.2"/>
<path fill-rule="evenodd" clip-rule="evenodd" d="M56.7758 9.47385H58.0668C58.3908 9.47385 58.6508 9.36585 58.8458 9.14785C59.0418 8.92985 59.1388 8.68985 59.1388 8.42685C59.1388 8.16385 59.0418 7.92385 58.8458 7.70585C58.6508 7.48785 58.3908 7.37885 58.0668 7.37885H56.7758V9.47385ZM56.7758 12.6418H56.0048V6.64185H58.0498C58.5578 6.64185 58.9988 6.81085 59.3698 7.14885C59.7418 7.48685 59.9268 7.91285 59.9268 8.42685C59.9268 8.94085 59.7418 9.36685 59.3698 9.70385C58.9988 10.0428 58.5578 10.2118 58.0498 10.2118H56.7758V12.6418Z" fill="white"/>
<path d="M56.7758 9.47385H56.6758V9.57385H56.7758V9.47385ZM58.8458 9.14785L58.7714 9.08099L58.7713 9.08118L58.8458 9.14785ZM58.8458 7.70585L58.7713 7.77252L58.7714 7.7727L58.8458 7.70585ZM56.7758 7.37885V7.27885H56.6758V7.37885H56.7758ZM56.7758 12.6418V12.7418H56.8758V12.6418H56.7758ZM56.0048 12.6418H55.9048V12.7418H56.0048V12.6418ZM56.0048 6.64185V6.54185H55.9048V6.64185H56.0048ZM59.3698 7.14885L59.3024 7.22277L59.3025 7.22286L59.3698 7.14885ZM59.3698 9.70385L59.3027 9.62973L59.3023 9.63002L59.3698 9.70385ZM56.7758 10.2118V10.1118H56.6758V10.2118H56.7758ZM56.7758 9.57385H58.0668V9.37385H56.7758V9.57385ZM58.0668 9.57385C58.4155 9.57385 58.704 9.45635 58.9203 9.21452L58.7713 9.08118C58.5976 9.27534 58.3661 9.37385 58.0668 9.37385V9.57385ZM58.9202 9.2147C59.1308 8.98045 59.2388 8.71723 59.2388 8.42685H59.0388C59.0388 8.66246 58.9528 8.87924 58.7714 9.08099L58.9202 9.2147ZM59.2388 8.42685C59.2388 8.13646 59.1308 7.87324 58.9202 7.63899L58.7714 7.7727C58.9528 7.97445 59.0388 8.19123 59.0388 8.42685H59.2388ZM58.9203 7.63918C58.7042 7.39751 58.4158 7.27885 58.0668 7.27885V7.47885C58.3658 7.47885 58.5974 7.57818 58.7713 7.77252L58.9203 7.63918ZM58.0668 7.27885H56.7758V7.47885H58.0668V7.27885ZM56.6758 7.37885V9.47385H56.8758V7.37885H56.6758ZM56.7758 12.5418H56.0048V12.7418H56.7758V12.5418ZM56.1048 12.6418V6.64185H55.9048V12.6418H56.1048ZM56.0048 6.74185H58.0498V6.54185H56.0048V6.74185ZM58.0498 6.74185C58.5333 6.74185 58.9502 6.90183 59.3024 7.22277L59.4371 7.07492C59.0474 6.71987 58.5823 6.54185 58.0498 6.54185V6.74185ZM59.3025 7.22286C59.653 7.54133 59.8268 7.94016 59.8268 8.42685H60.0268C60.0268 7.88553 59.8305 7.43237 59.437 7.07483L59.3025 7.22286ZM59.8268 8.42685C59.8268 8.91356 59.653 9.31232 59.3027 9.62973L59.4369 9.77796C59.8305 9.42137 60.0268 8.96813 60.0268 8.42685H59.8268ZM59.3023 9.63002C58.9501 9.95188 58.5333 10.1118 58.0498 10.1118V10.3118C58.5823 10.3118 59.0475 10.1338 59.4372 9.77767L59.3023 9.63002ZM58.0498 10.1118H56.7758V10.3118H58.0498V10.1118ZM56.6758 10.2118V12.6418H56.8758V10.2118H56.6758Z" fill="white"/>
<path fill-rule="evenodd" clip-rule="evenodd" d="M61.975 11.3641C62.419 11.8141 62.962 12.0381 63.605 12.0381C64.247 12.0381 64.791 11.8141 65.235 11.3641C65.679 10.9141 65.902 10.3401 65.902 9.64206C65.902 8.94406 65.679 8.36906 65.235 7.92006C64.791 7.47006 64.247 7.24506 63.605 7.24506C62.962 7.24506 62.419 7.47006 61.975 7.92006C61.532 8.36906 61.309 8.94406 61.309 9.64206C61.309 10.3401 61.532 10.9141 61.975 11.3641ZM65.805 11.8661C65.215 12.4731 64.482 12.7761 63.605 12.7761C62.728 12.7761 61.995 12.4731 61.406 11.8661C60.816 11.2601 60.522 10.5191 60.522 9.64206C60.522 8.76506 60.816 8.02306 61.406 7.41706C61.995 6.81106 62.728 6.50806 63.605 6.50806C64.477 6.50806 65.208 6.81206 65.801 7.42106C66.393 8.03006 66.689 8.77006 66.689 9.64206C66.689 10.5191 66.394 11.2601 65.805 11.8661Z" fill="white"/>
<path d="M61.975 11.3641L61.9037 11.4342L61.9038 11.4343L61.975 11.3641ZM65.235 7.92006L65.1638 7.99029L65.1639 7.99037L65.235 7.92006ZM61.975 7.92006L61.9038 7.84982L61.9038 7.84982L61.975 7.92006ZM65.805 11.8661L65.8767 11.9358L65.8767 11.9358L65.805 11.8661ZM61.406 11.8661L61.4778 11.7964L61.4777 11.7963L61.406 11.8661ZM61.406 7.41706L61.4777 7.48682L61.4777 7.48675L61.406 7.41706ZM65.801 7.42106L65.8727 7.35135L65.8726 7.35129L65.801 7.42106ZM61.9038 11.4343C62.367 11.9038 62.9359 12.1381 63.605 12.1381V11.9381C62.9882 11.9381 62.471 11.7243 62.0462 11.2938L61.9038 11.4343ZM63.605 12.1381C64.2731 12.1381 64.843 11.9038 65.3062 11.4343L65.1638 11.2938C64.739 11.7243 64.2209 11.9381 63.605 11.9381V12.1381ZM65.3062 11.4343C65.7706 10.9636 66.002 10.3635 66.002 9.64206H65.802C65.802 10.3167 65.5874 10.8645 65.1638 11.2938L65.3062 11.4343ZM66.002 9.64206C66.002 8.92072 65.7706 8.31949 65.3061 7.84974L65.1639 7.99037C65.5874 8.41863 65.802 8.96739 65.802 9.64206H66.002ZM65.3062 7.84982C64.843 7.38041 64.2732 7.14506 63.605 7.14506V7.34506C64.2208 7.34506 64.739 7.5597 65.1638 7.99029L65.3062 7.84982ZM63.605 7.14506C62.9357 7.14506 62.367 7.38043 61.9038 7.84982L62.0462 7.99029C62.4711 7.55968 62.9883 7.34506 63.605 7.34506V7.14506ZM61.9038 7.84982C61.4404 8.31954 61.209 8.92073 61.209 9.64206H61.409C61.409 8.96738 61.6236 8.41857 62.0462 7.99029L61.9038 7.84982ZM61.209 9.64206C61.209 10.3635 61.4404 10.9636 61.9037 11.4342L62.0463 11.2939C61.6236 10.8645 61.409 10.3167 61.409 9.64206H61.209ZM65.7333 11.7964C65.1629 12.3832 64.4561 12.6761 63.605 12.6761V12.8761C64.5079 12.8761 65.2671 12.5629 65.8767 11.9358L65.7333 11.7964ZM63.605 12.6761C62.7539 12.6761 62.0471 12.3832 61.4778 11.7964L61.3342 11.9357C61.9429 12.5629 62.7021 12.8761 63.605 12.8761V12.6761ZM61.4777 11.7963C60.9066 11.2098 60.622 10.4941 60.622 9.64206H60.422C60.422 10.544 60.7254 11.3103 61.3344 11.9358L61.4777 11.7963ZM60.622 9.64206C60.622 8.78994 60.9066 8.07332 61.4777 7.48682L61.3344 7.3473C60.7254 7.97279 60.422 8.74017 60.422 9.64206H60.622ZM61.4777 7.48675C62.0471 6.90093 62.7539 6.60806 63.605 6.60806V6.40806C62.7021 6.40806 61.9429 6.72118 61.3343 7.34736L61.4777 7.48675ZM63.605 6.60806C64.4508 6.60806 65.1557 6.9017 65.7294 7.49082L65.8726 7.35129C65.2603 6.72241 64.5032 6.40806 63.605 6.40806V6.60806ZM65.7293 7.49076C66.3026 8.08056 66.589 8.79533 66.589 9.64206H66.789C66.789 8.74478 66.4834 7.97956 65.8727 7.35135L65.7293 7.49076ZM66.589 9.64206C66.589 10.4941 66.3034 11.2098 65.7333 11.7964L65.8767 11.9358C66.4846 11.3104 66.789 10.5441 66.789 9.64206H66.589Z" fill="white"/>
<path fill-rule="evenodd" clip-rule="evenodd" d="M67.7709 12.6418V6.64185H68.7089L71.6249 11.3088H71.6589L71.6249 10.1528V6.64185H72.3969V12.6418H71.5919L68.5419 7.74785H68.5079L68.5419 8.90485V12.6418H67.7709Z" fill="white"/>
<path fill-rule="evenodd" clip-rule="evenodd" d="M67.7709 12.6418V6.64185H68.7089L71.6249 11.3088H71.6589L71.6249 10.1528V6.64185H72.3969V12.6418H71.5919L68.5419 7.74785H68.5079L68.5419 8.90485V12.6418H67.7709Z" stroke="white" stroke-width="0.2"/>
<path fill-rule="evenodd" clip-rule="evenodd" d="M74.4916 6.17285H73.8206L74.2576 5.09985H75.0956L74.4916 6.17285ZM73.7706 12.6419H74.5416V6.64185H73.7706V12.6419Z" fill="white"/>
<path d="M74.4916 6.17285V6.27285H74.5501L74.5787 6.22191L74.4916 6.17285ZM73.8206 6.17285L73.728 6.13513L73.6719 6.27285H73.8206V6.17285ZM74.2576 5.09985V4.99985H74.1904L74.165 5.06213L74.2576 5.09985ZM75.0956 5.09985L75.1827 5.14891L75.2666 4.99985H75.0956V5.09985ZM73.7706 12.6419H73.6706V12.7419H73.7706V12.6419ZM74.5416 12.6419V12.7419H74.6416V12.6419H74.5416ZM74.5416 6.64185H74.6416V6.54185H74.5416V6.64185ZM73.7706 6.64185V6.54185H73.6706V6.64185H73.7706ZM74.4916 6.07285H73.8206V6.27285H74.4916V6.07285ZM73.9132 6.21057L74.3502 5.13757L74.165 5.06213L73.728 6.13513L73.9132 6.21057ZM74.2576 5.19985H75.0956V4.99985H74.2576V5.19985ZM75.0085 5.0508L74.4045 6.1238L74.5787 6.22191L75.1827 5.14891L75.0085 5.0508ZM73.7706 12.7419H74.5416V12.5419H73.7706V12.7419ZM74.6416 12.6419V6.64185H74.4416V12.6419H74.6416ZM74.5416 6.54185H73.7706V6.74185H74.5416V6.54185ZM73.6706 6.64185V12.6419H73.8706V6.64185H73.6706Z" fill="white"/>
<path fill-rule="evenodd" clip-rule="evenodd" d="M77.3988 12.6418L75.2878 6.64185H76.1418L77.7848 11.5108H77.8178L79.5278 6.64185H80.3818L78.2038 12.6418H77.3988Z" fill="white"/>
<path fill-rule="evenodd" clip-rule="evenodd" d="M77.3988 12.6418L75.2878 6.64185H76.1418L77.7848 11.5108H77.8178L79.5278 6.64185H80.3818L78.2038 12.6418H77.3988Z" stroke="white" stroke-width="0.2"/>
<path fill-rule="evenodd" clip-rule="evenodd" d="M84.7572 7.37933H82.0252V9.28133H84.4882V10.0023H82.0252V11.9043H84.7572V12.6423H81.2542V6.64233H84.7572V7.37933Z" fill="white"/>
<path fill-rule="evenodd" clip-rule="evenodd" d="M84.7572 7.37933H82.0252V9.28133H84.4882V10.0023H82.0252V11.9043H84.7572V12.6423H81.2542V6.64233H84.7572V7.37933Z" stroke="white" stroke-width="0.2"/>
<path fill-rule="evenodd" clip-rule="evenodd" d="M85.9642 12.6418V6.64185H86.7352V11.9048H89.3322V12.6418H85.9642Z" fill="white"/>
<path fill-rule="evenodd" clip-rule="evenodd" d="M85.9642 12.6418V6.64185H86.7352V11.9048H89.3322V12.6418H85.9642Z" stroke="white" stroke-width="0.2"/>
<path fill-rule="evenodd" clip-rule="evenodd" d="M92.3158 12.6418V6.64185H93.2538L96.1698 11.3088H96.2038L96.1698 10.1528V6.64185H96.9418V12.6418H96.1368L93.0868 7.74785H93.0528L93.0868 8.90485V12.6418H92.3158Z" fill="white"/>
<path fill-rule="evenodd" clip-rule="evenodd" d="M92.3158 12.6418V6.64185H93.2538L96.1698 11.3088H96.2038L96.1698 10.1528V6.64185H96.9418V12.6418H96.1368L93.0868 7.74785H93.0528L93.0868 8.90485V12.6418H92.3158Z" stroke="white" stroke-width="0.2"/>
<path fill-rule="evenodd" clip-rule="evenodd" d="M99.391 11.3641C99.835 11.8141 100.378 12.0381 101.021 12.0381C101.663 12.0381 102.207 11.8141 102.651 11.3641C103.095 10.9141 103.318 10.3401 103.318 9.64206C103.318 8.94406 103.095 8.36906 102.651 7.92006C102.207 7.47006 101.663 7.24506 101.021 7.24506C100.378 7.24506 99.835 7.47006 99.391 7.92006C98.948 8.36906 98.725 8.94406 98.725 9.64206C98.725 10.3401 98.948 10.9141 99.391 11.3641ZM103.221 11.8661C102.631 12.4731 101.898 12.7761 101.021 12.7761C100.144 12.7761 99.411 12.4731 98.822 11.8661C98.232 11.2601 97.938 10.5191 97.938 9.64206C97.938 8.76506 98.232 8.02306 98.822 7.41706C99.411 6.81106 100.144 6.50806 101.021 6.50806C101.893 6.50806 102.624 6.81206 103.217 7.42106C103.809 8.03006 104.105 8.77006 104.105 9.64206C104.105 10.5191 103.81 11.2601 103.221 11.8661Z" fill="white"/>
<path d="M99.391 11.3641L99.3197 11.4342L99.3198 11.4343L99.391 11.3641ZM102.651 7.92006L102.58 7.99029L102.58 7.99037L102.651 7.92006ZM99.391 7.92006L99.3198 7.84982L99.3198 7.84982L99.391 7.92006ZM103.221 11.8661L103.293 11.9358L103.293 11.9358L103.221 11.8661ZM98.822 11.8661L98.8938 11.7964L98.8936 11.7963L98.822 11.8661ZM98.822 7.41706L98.8936 7.48682L98.8937 7.48675L98.822 7.41706ZM103.217 7.42106L103.289 7.35135L103.289 7.35129L103.217 7.42106ZM99.3198 11.4343C99.783 11.9038 100.352 12.1381 101.021 12.1381V11.9381C100.404 11.9381 99.887 11.7243 99.4622 11.2938L99.3198 11.4343ZM101.021 12.1381C101.689 12.1381 102.259 11.9038 102.722 11.4343L102.58 11.2938C102.155 11.7243 101.637 11.9381 101.021 11.9381V12.1381ZM102.722 11.4343C103.187 10.9636 103.418 10.3635 103.418 9.64206H103.218C103.218 10.3167 103.003 10.8645 102.58 11.2938L102.722 11.4343ZM103.418 9.64206C103.418 8.92072 103.187 8.31949 102.722 7.84974L102.58 7.99037C103.003 8.41863 103.218 8.96739 103.218 9.64206H103.418ZM102.722 7.84982C102.259 7.38041 101.689 7.14506 101.021 7.14506V7.34506C101.637 7.34506 102.155 7.5597 102.58 7.99029L102.722 7.84982ZM101.021 7.14506C100.352 7.14506 99.7829 7.38043 99.3198 7.84982L99.4622 7.99029C99.887 7.55968 100.404 7.34506 101.021 7.34506V7.14506ZM99.3198 7.84982C98.8564 8.31954 98.625 8.92073 98.625 9.64206H98.825C98.825 8.96738 99.0396 8.41857 99.4622 7.99029L99.3198 7.84982ZM98.625 9.64206C98.625 10.3635 98.8564 10.9636 99.3197 11.4342L99.4623 11.2939C99.0396 10.8645 98.825 10.3167 98.825 9.64206H98.625ZM103.149 11.7964C102.579 12.3832 101.872 12.6761 101.021 12.6761V12.8761C101.924 12.8761 102.683 12.5629 103.293 11.9358L103.149 11.7964ZM101.021 12.6761C100.17 12.6761 99.4631 12.3832 98.8938 11.7964L98.7502 11.9357C99.3588 12.5629 100.118 12.8761 101.021 12.8761V12.6761ZM98.8936 11.7963C98.3226 11.2098 98.038 10.4941 98.038 9.64206H97.838C97.838 10.544 98.1414 11.3103 98.7503 11.9358L98.8936 11.7963ZM98.038 9.64206C98.038 8.78994 98.3226 8.07332 98.8936 7.48682L98.7503 7.3473C98.1414 7.97279 97.838 8.74017 97.838 9.64206H98.038ZM98.8937 7.48675C99.4631 6.90093 100.17 6.60806 101.021 6.60806V6.40806C100.118 6.40806 99.3589 6.72118 98.7503 7.34736L98.8937 7.48675ZM101.021 6.60806C101.867 6.60806 102.572 6.9017 103.145 7.49082L103.289 7.35129C102.676 6.72241 101.919 6.40806 101.021 6.40806V6.60806ZM103.145 7.49076C103.719 8.08056 104.005 8.79533 104.005 9.64206H104.205C104.205 8.74478 103.899 7.97956 103.289 7.35135L103.145 7.49076ZM104.005 9.64206C104.005 10.4941 103.719 11.2098 103.149 11.7964L103.293 11.9358C103.901 11.3104 104.205 10.5441 104.205 9.64206H104.005Z" fill="white"/>
</g>
<path fill-rule="evenodd" clip-rule="evenodd" d="M28.3889 15.8433L24.2021 20.0803L11.5907 7.31856C12.0685 6.90956 12.7867 6.87125 13.6002 7.33927L28.3889 15.8433ZM28.6193 15.9756L33.553 18.8127C34.9823 19.6348 34.9823 20.9798 33.553 21.803L28.6756 24.608L24.3834 20.2633L28.6193 15.9756ZM24.2021 20.4463L11.5405 33.2598C12.0163 33.7091 12.7591 33.7588 13.6002 33.2753L28.4441 24.7392L24.2021 20.4463ZM11 8.85742C11 8.27136 11.1525 7.81474 11.4052 7.49582L24.0217 20.2637L11.3683 33.0679C11.1391 32.7521 11 32.3141 11 31.757V8.85742Z" fill="#F2F2F2"/>
<mask id="mask2" mask-type="alpha" maskUnits="userSpaceOnUse" x="11" y="7" width="24" height="27">
<path fill-rule="evenodd" clip-rule="evenodd" d="M28.3889 15.8433L24.2021 20.0803L11.5907 7.31856C12.0685 6.90956 12.7867 6.87125 13.6002 7.33927L28.3889 15.8433ZM28.6193 15.9756L33.553 18.8127C34.9823 19.6348 34.9823 20.9798 33.553 21.803L28.6756 24.608L24.3834 20.2633L28.6193 15.9756ZM24.2021 20.4463L11.5405 33.2598C12.0163 33.7091 12.7591 33.7588 13.6002 33.2753L28.4441 24.7392L24.2021 20.4463ZM11 8.85742C11 8.27136 11.1525 7.81474 11.4052 7.49582L24.0217 20.2637L11.3683 33.0679C11.1391 32.7521 11 32.3141 11 31.757V8.85742Z" fill="white"/>
</mask>
<g mask="url(#mask2)">
<rect x="-6.18182" y="-8.12012" width="149.019" height="52.7442" fill="white"/>
</g>
</g>
<defs>
<clipPath id="clip0">
<rect width="118" height="30" fill="white" transform="translate(11 5)"/>
</clipPath>
</defs>
</svg>
