<svg width="140" height="40" viewBox="0 0 140 40" fill="none" xmlns="http://www.w3.org/2000/svg">
<rect width="140" height="40" rx="4" fill="#660099"/>
<mask id="mask0" mask-type="alpha" maskUnits="userSpaceOnUse" x="0" y="0" width="140" height="40">
<rect width="140" height="40" rx="4" fill="white"/>
</mask>
<g mask="url(#mask0)">
<rect width="140" height="40" fill="black"/>
</g>
<path fill-rule="evenodd" clip-rule="evenodd" d="M43.9641 27.0841H49.4257L50.7362 30.9569H53.0889L47.9158 16.6284H45.5123L40.3392 30.9569H42.6525L43.9641 27.0841ZM48.859 25.2969H44.5297L46.6651 19.0116H46.7248L48.859 25.2969Z" fill="white"/>
<path fill-rule="evenodd" clip-rule="evenodd" d="M59.9016 31.0663C62.5236 31.0663 64.2612 28.9806 64.2612 25.7343C64.2612 22.497 62.5135 20.4011 59.8621 20.4011C58.4979 20.3571 57.2198 21.0667 56.5358 22.2479H56.4964V20.5104H54.4208V34.4129H56.5651V29.2386H56.6147C57.2696 30.4273 58.5463 31.1372 59.9016 31.0663ZM59.2965 22.2288C60.9641 22.2288 62.0571 23.6193 62.0571 25.7343C62.0571 27.8684 60.9642 29.2488 59.2965 29.2488C57.6581 29.2488 56.5561 27.8391 56.5561 25.7343C56.5561 23.6486 57.6581 22.2288 59.2965 22.2288Z" fill="white"/>
<path fill-rule="evenodd" clip-rule="evenodd" d="M71.3995 31.0663C74.0215 31.0663 75.7591 28.9806 75.7591 25.7343C75.7591 22.497 74.0114 20.4011 71.36 20.4011C69.9957 20.3571 68.7177 21.0667 68.0337 22.2479H67.9942V20.5104H65.9187V34.4129H68.063V29.2386H68.1126C68.7675 30.4273 70.0441 31.1372 71.3995 31.0663ZM70.7944 22.2288C72.462 22.2288 73.555 23.6193 73.555 25.7343H73.5551C73.5551 27.8684 72.4621 29.2488 70.7944 29.2488C69.156 29.2488 68.054 27.8391 68.054 25.7343C68.054 23.6485 69.156 22.2288 70.7944 22.2288Z" fill="white"/>
<path d="M83.3582 26.9648C83.5171 28.3857 84.8975 29.3186 86.7837 29.3186C88.5911 29.3186 89.8914 28.3856 89.8914 27.1044C89.8914 25.9923 89.1072 25.3263 87.2502 24.87L85.3932 24.4226C82.7622 23.7871 81.5407 22.5566 81.5407 20.5599C81.5407 18.0877 83.6951 16.3896 86.7544 16.3896C89.7821 16.3896 91.8577 18.0877 91.9276 20.5599H89.7629C89.6334 19.13 88.4513 18.2669 86.724 18.2669C84.9966 18.2669 83.8146 19.1402 83.8146 20.4112C83.8146 21.4242 84.5695 22.0203 86.4163 22.4766L87.995 22.8642C90.9348 23.5595 92.1563 24.7404 92.1563 26.8362C92.1563 29.5169 90.021 31.1958 86.6248 31.1958C83.4472 31.1958 81.3018 29.5563 81.1632 26.9646L83.3582 26.9648Z" fill="white"/>
<path d="M96.7841 18.0381V20.5103H98.7706V22.2084H96.7841V27.9675C96.7841 28.8622 97.1818 29.2791 98.0551 29.2791C98.2909 29.275 98.5264 29.2584 98.7605 29.2295V30.9174C98.3679 30.9908 97.9688 31.024 97.5695 31.0166C95.4545 31.0166 94.6296 30.2222 94.6296 28.1962V22.2084H93.1107V20.5103H94.6296V18.0381H96.7841Z" fill="white"/>
<path fill-rule="evenodd" clip-rule="evenodd" d="M104.876 20.3818C101.857 20.3818 99.9211 22.4473 99.9211 25.7341C99.9211 29.03 101.838 31.0865 104.876 31.0865C107.915 31.0865 109.831 29.0301 109.831 25.7341C109.831 22.4472 107.905 20.3818 104.876 20.3818ZM104.876 22.1487C106.613 22.1487 107.647 23.4794 107.647 25.7341H107.646C107.646 27.9979 106.613 29.3185 104.876 29.3185C103.138 29.3185 102.106 27.9979 102.106 25.7341C102.106 23.4896 103.138 22.1487 104.876 22.1487Z" fill="white"/>
<path d="M111.599 20.5103H113.644V22.2884H113.694C113.979 21.1438 115.028 20.356 116.207 20.401C116.454 20.4001 116.7 20.427 116.941 20.481V22.4867C116.63 22.3914 116.304 22.3476 115.978 22.3571C115.348 22.3316 114.738 22.5828 114.308 23.0449C113.878 23.507 113.672 24.1337 113.744 24.7606V30.9569H111.599L111.599 20.5103Z" fill="white"/>
<path fill-rule="evenodd" clip-rule="evenodd" d="M122.33 31.0865C124.693 31.0865 126.54 29.785 126.828 27.8886L124.792 27.8886C124.401 28.8579 123.42 29.4554 122.379 29.3579C121.599 29.3867 120.844 29.0788 120.307 28.5127C119.769 27.9465 119.5 27.1767 119.569 26.399V26.2694H126.947V25.5347C126.947 22.3673 125.13 20.3818 122.24 20.3818C119.301 20.3818 117.405 22.507 117.405 25.7837C117.405 29.0503 119.291 31.0865 122.33 31.0865ZM124.802 24.7707L119.579 24.7707C119.577 24.0654 119.857 23.3886 120.357 22.8907C120.857 22.3929 121.534 22.1152 122.24 22.1194C122.939 22.1043 123.614 22.3819 124.1 22.8852C124.587 23.3885 124.841 24.0719 124.802 24.7707Z" fill="white"/>
<path fill-rule="evenodd" clip-rule="evenodd" d="M41.7741 12.7282V5.84351H44.5416C45.8351 5.84351 46.6126 6.50156 46.6126 7.56075C46.6132 8.27811 46.1087 8.8967 45.4058 9.04025V9.12138C46.2853 9.16297 46.9722 9.89636 46.9563 10.7766C46.9563 11.9885 46.074 12.7283 44.6035 12.7283L41.7741 12.7282ZM42.8435 8.75849H44.1123C45.0577 8.75849 45.5489 8.41031 45.5489 7.75677C45.5489 7.12182 45.0858 6.74997 44.2937 6.74997H42.8435V8.75849ZM45.8633 10.7005C45.8633 11.4301 45.3529 11.8217 44.3894 11.8217H42.8435V9.60304H44.3275C45.3337 9.60304 45.8633 9.97995 45.8633 10.7005Z" fill="white"/>
<path fill-rule="evenodd" clip-rule="evenodd" d="M49.9874 9.7077C48.7513 9.78433 48.0549 10.3235 48.0549 11.2587C48.0567 11.7022 48.2459 12.1242 48.5759 12.4205C48.9059 12.7167 49.3458 12.8596 49.7868 12.8137C50.416 12.8428 51.0122 12.5312 51.3475 11.9979H51.4286V12.7281H52.4157V9.17811C52.4157 8.08059 51.681 7.43213 50.3784 7.43213C49.1998 7.43213 48.3603 8.00454 48.2555 8.89697H49.2482C49.362 8.52963 49.7587 8.31948 50.3311 8.31948C51.0319 8.31948 51.3948 8.62935 51.3948 9.17811V9.62657L49.9874 9.7077ZM51.3948 10.3804V10.8148C51.3723 11.1459 51.2165 11.4538 50.9629 11.6679C50.7093 11.882 50.3796 11.984 50.0494 11.9506C49.4916 11.9506 49.086 11.6785 49.086 11.2108C49.086 10.7528 49.4105 10.5094 50.126 10.4615L51.3948 10.3804Z" fill="white"/>
<path fill-rule="evenodd" clip-rule="evenodd" d="M54.269 5.35482C54.0224 5.47017 53.8711 5.72428 53.8873 5.99603C53.8889 6.16807 53.9607 6.33201 54.0859 6.44994C54.2112 6.56788 54.3792 6.6296 54.551 6.62084C54.8232 6.6206 55.0678 6.4543 55.168 6.2012C55.2683 5.94811 55.204 5.65946 55.0058 5.47286C54.8076 5.28626 54.5156 5.23948 54.269 5.35482ZM55.0614 7.53242H54.0394L54.0394 12.7281H55.0614V7.53242Z" fill="white"/>
<path d="M58.5804 10.8864L57.4446 12.7282H56.3189L58.0418 10.1421L56.3043 7.53247H57.5021L58.6187 9.36465H58.6999L59.8064 7.53247H60.9467L59.234 10.0993L60.9659 12.7282H59.7883L58.657 10.8864H58.5804Z" fill="white"/>
<path fill-rule="evenodd" clip-rule="evenodd" d="M63.8031 9.7077C62.567 9.78433 61.8707 10.3235 61.8707 11.2587C61.8724 11.7022 62.0617 12.1242 62.3916 12.4205C62.7216 12.7167 63.1615 12.8596 63.6026 12.8137C64.2318 12.8428 64.8279 12.5312 65.1632 11.9979H65.2443V12.7281H66.2314V9.17811C66.2314 8.08059 65.4967 7.43213 64.1941 7.43213C63.0155 7.43213 62.176 8.00454 62.0712 8.89697H63.064C63.1778 8.52963 63.5744 8.31948 64.1468 8.31948C64.8477 8.31948 65.2105 8.62935 65.2105 9.17811V9.62657L63.8031 9.7077ZM65.2105 10.3804V10.8148C65.1881 11.1459 65.0322 11.4538 64.7786 11.6679C64.525 11.882 64.1954 11.984 63.8651 11.9506C63.3073 11.9506 62.9017 11.6785 62.9017 11.2108C62.9017 10.7528 63.2262 10.5094 63.9417 10.4615L65.2105 10.3804Z" fill="white"/>
<path d="M67.8371 7.53253H68.8242V8.32918H68.9008C69.1275 7.76182 69.6941 7.40526 70.3037 7.44632C70.4572 7.44426 70.6106 7.45861 70.7611 7.48914V8.50106C70.573 8.46085 70.3811 8.44009 70.1887 8.43909C69.8467 8.40838 69.5077 8.52352 69.2551 8.75613C69.0026 8.98874 68.86 9.31719 68.8625 9.66054V12.7283H67.8371L67.8371 7.53253Z" fill="white"/>
<path d="M74.7128 7.53244H75.7005V8.35782H75.7771C76.0436 7.75012 76.6663 7.37838 77.3276 7.43215C77.8397 7.39364 78.3415 7.5901 78.6914 7.96603C79.0412 8.34197 79.2012 8.8566 79.126 9.36461V12.7281H78.1006V9.6221C78.1006 8.78714 77.7378 8.37191 76.9794 8.37191C76.6321 8.35573 76.295 8.49205 76.0565 8.74513C75.8181 8.9982 75.702 9.3428 75.7388 9.68857V12.7281H74.7129L74.7128 7.53244Z" fill="white"/>
<path fill-rule="evenodd" clip-rule="evenodd" d="M82.3486 9.7077C81.1125 9.78433 80.4161 10.3235 80.4161 11.2587C80.4179 11.7022 80.6071 12.1242 80.9371 12.4205C81.2671 12.7167 81.707 12.8596 82.148 12.8137C82.7772 12.8428 83.3734 12.5312 83.7087 11.9979H83.7898V12.7281H84.7769V9.17811C84.7769 8.08059 84.0422 7.43213 82.7396 7.43213C81.561 7.43213 80.7215 8.00454 80.6167 8.89697H81.6094C81.7232 8.52963 82.1199 8.31948 82.6923 8.31948C83.3932 8.31948 83.756 8.62935 83.756 9.17811V9.62657L82.3486 9.7077ZM83.756 10.3804V10.8148H83.756C83.7336 11.1459 83.5777 11.4538 83.3241 11.6679C83.0705 11.882 82.7408 11.984 82.4106 11.9506C81.8528 11.9506 81.4472 11.6785 81.4472 11.2108C81.4472 10.7528 81.7717 10.5094 82.4872 10.4615L83.756 10.3804Z" fill="white"/>
<path d="M29.1949 19.193C29.2201 17.2355 30.2463 15.4274 31.914 14.4022C30.8571 12.8928 29.1504 11.9702 27.3088 11.9125C25.3712 11.7092 23.4928 13.072 22.5054 13.072C21.499 13.072 19.9788 11.9327 18.3418 11.9664C16.1879 12.036 14.2286 13.2309 13.1807 15.114C10.9492 18.9775 12.6137 24.6556 14.7513 27.7787C15.8208 29.3079 17.0708 31.0161 18.7063 30.9555C20.3067 30.8892 20.9045 29.935 22.8364 29.935C24.7503 29.935 25.3111 30.9555 26.9798 30.917C28.6972 30.8892 29.7792 29.381 30.8112 27.8373C31.5796 26.7476 32.1709 25.5433 32.5632 24.269C30.5235 23.4063 29.1972 21.4076 29.1949 19.193Z" fill="white"/>
<path d="M26.043 9.85869C26.9793 8.73461 27.4407 7.28978 27.329 5.83105C25.8984 5.98131 24.5769 6.66503 23.6279 7.74599C22.6908 8.8125 22.216 10.2078 22.3082 11.6245C23.758 11.6394 25.1345 10.9886 26.043 9.85869Z" fill="white"/>
</svg>
